<svg version="1.2" baseProfile="tiny-ps" xmlns="http://www.w3.org/2000/svg" viewBox="0 0 19 19" width="19" height="19">
	<title>Free right arrow icon png vector-svg</title>
	<style>
		tspan { white-space:pre }
		.shp0 { fill: #000000 } 
		.shp1 { fill: #ffffff } 
		.shp2 { fill: #24b1ff } 
	</style>
	<g id="right_arrow">
		<path id="Layer" class="shp0" d="M9.51 4.5L16.5 11.58L13.6 14.5L9.5 10.36L5.4 14.5L2.5 11.58L9.49 4.5L9.5 4.51L9.51 4.5Z" />
	</g>
	<g id="credit">
		<g id="Layer">
			<g id="Layer">
				<g id="Layer">
					<g id="Layer">
						<path id="Layer" fill-rule="evenodd" class="shp0" d="M22.04 12.8L20.53 12.8L20.53 12.11C20.53 11.94 20.56 11.83 20.63 11.77C20.69 11.7 20.82 11.67 21 11.67C21.17 11.67 21.29 11.7 21.35 11.77C21.41 11.83 21.44 11.95 21.44 12.13L21.44 12.63L22.04 12.63L22.04 12.8ZM21.3 12.63L21.3 12.23C21.3 12.06 21.28 11.95 21.25 11.91C21.21 11.86 21.13 11.84 21.01 11.84C20.86 11.84 20.77 11.85 20.73 11.88C20.69 11.92 20.68 11.99 20.68 12.11L20.67 12.18L20.67 12.63L21.3 12.63Z" />
						<path id="Layer" class="shp0" d="M20.53 11.3L22.04 11.3L22.04 11.47L20.53 11.47L20.53 11.3Z" />
						<path id="Layer" class="shp0" d="M20.53 9.86L21.26 10.35L22.04 9.83L22.04 10.03L21.51 10.38L21.43 10.43C21.42 10.44 21.41 10.44 21.39 10.46L21.35 10.48L21.35 10.49L21.39 10.51C21.41 10.53 21.42 10.54 21.43 10.54L21.51 10.6L22.04 10.95L22.04 11.16L21.26 10.62L20.53 11.12L20.53 10.91L21.03 10.58L21.1 10.53C21.11 10.53 21.12 10.52 21.14 10.51L21.17 10.49L21.17 10.48L21.14 10.46C21.12 10.45 21.11 10.44 21.1 10.44L21.03 10.4L20.53 10.07L20.53 9.86L20.53 9.86Z" />
						<g id="Layer">
							<path id="Layer" class="shp0" d="M21.25 8.14C21.19 8.21 21.16 8.36 21.15 8.61C21.13 8.87 21.11 8.93 21.1 8.95C21.09 8.96 21.06 8.99 20.91 8.99C20.85 8.99 20.77 8.98 20.74 8.93C20.72 8.9 20.7 8.82 20.7 8.61C20.7 8.43 20.72 8.37 20.74 8.35C20.75 8.33 20.8 8.3 20.94 8.3L20.98 8.3L20.98 8.05L20.94 8.05C20.75 8.05 20.62 8.09 20.56 8.17C20.5 8.25 20.47 8.4 20.47 8.64C20.47 8.87 20.5 9.03 20.57 9.11C20.63 9.2 20.75 9.24 20.94 9.24C21.21 9.24 21.36 9.09 21.38 8.81L21.4 8.47C21.41 8.36 21.43 8.32 21.44 8.3C21.46 8.29 21.49 8.27 21.6 8.27C21.77 8.27 21.81 8.31 21.82 8.32C21.84 8.34 21.87 8.42 21.87 8.66C21.87 8.87 21.84 8.93 21.83 8.95C21.81 8.96 21.77 8.99 21.61 8.99L21.53 8.99L21.53 9.25L21.64 9.25C21.82 9.25 21.94 9.21 22 9.12C22.07 9.04 22.09 8.89 22.09 8.66C22.09 8.4 22.07 8.23 22.01 8.15C21.94 8.07 21.81 8.02 21.61 8.02C21.42 8.02 21.3 8.06 21.25 8.14Z" />
							<path id="Layer" class="shp0" d="M22.08 7.97L22.08 6.91L21.85 6.91L21.85 7.71L21.37 7.71L21.37 6.94L21.14 6.94L21.14 7.71L20.72 7.71L20.72 6.91L20.49 6.91L20.49 7.97L22.08 7.97Z" />
							<path id="Layer" class="shp0" d="M21.62 5.79C21.73 5.79 21.8 5.81 21.83 5.84C21.84 5.86 21.87 5.94 21.87 6.2C21.87 6.45 21.81 6.51 21.78 6.53C21.74 6.55 21.57 6.58 21.06 6.58C20.83 6.58 20.77 6.54 20.75 6.51C20.73 6.49 20.7 6.4 20.7 6.09C20.7 5.92 20.73 5.87 20.74 5.85C20.76 5.84 20.8 5.81 20.94 5.81L21.03 5.81L21.03 5.55L20.95 5.55C20.76 5.55 20.64 5.59 20.57 5.67C20.5 5.74 20.47 5.88 20.47 6.09C20.47 6.38 20.5 6.57 20.57 6.66C20.63 6.75 20.7 6.79 20.78 6.81C20.85 6.83 21.01 6.84 21.28 6.84C21.63 6.84 21.84 6.8 21.94 6.73C22.05 6.65 22.09 6.48 22.09 6.21C22.09 5.91 22.07 5.73 22.01 5.66C21.95 5.57 21.81 5.53 21.59 5.53L21.49 5.53L21.49 5.79L21.62 5.79Z" />
							<path id="Layer" class="shp0" d="M20.49 4.33L20.49 5.56L20.73 5.56L20.73 5.07L22.08 5.07L22.08 4.82L20.73 4.82L20.73 4.33L20.49 4.33Z" />
							<path id="Layer" fill-rule="evenodd" class="shp0" d="M20.61 3.1C20.7 3.02 20.92 2.98 21.26 2.98C21.64 2.98 21.86 3.02 21.96 3.1C22.05 3.18 22.1 3.36 22.1 3.67C22.1 3.97 22.05 4.16 21.96 4.24C21.86 4.32 21.64 4.35 21.28 4.35L21.03 4.35C20.82 4.35 20.67 4.3 20.59 4.2C20.51 4.1 20.47 3.93 20.47 3.67C20.47 3.37 20.52 3.18 20.61 3.1ZM20.76 4.06C20.78 4.07 20.88 4.11 21.28 4.11C21.69 4.11 21.78 4.07 21.8 4.06C21.82 4.04 21.87 3.98 21.87 3.67C21.87 3.37 21.82 3.3 21.8 3.28C21.78 3.27 21.69 3.23 21.28 3.23L21.04 3.23C20.85 3.23 20.78 3.27 20.76 3.3C20.73 3.33 20.7 3.43 20.7 3.67C20.7 3.97 20.75 4.04 20.76 4.06Z" />
							<path id="Layer" fill-rule="evenodd" class="shp0" d="M21.65 1.65L22.08 1.65L22.08 1.9L21.69 1.9C21.49 1.9 21.47 2 21.47 2.09L21.47 2.62L22.08 2.62L22.08 2.87L20.49 2.87L20.49 2.11C20.49 1.94 20.52 1.82 20.6 1.74C20.67 1.67 20.79 1.63 20.96 1.63C21.11 1.63 21.21 1.65 21.27 1.69C21.31 1.71 21.34 1.75 21.36 1.79C21.4 1.71 21.49 1.65 21.65 1.65ZM20.76 1.92C20.75 1.93 20.72 1.98 20.72 2.11L20.72 2.62L21.24 2.62L21.24 2.17C21.24 2.02 21.21 1.96 21.19 1.93C21.16 1.9 21.1 1.88 21 1.88C20.84 1.88 20.78 1.9 20.76 1.92Z" />
						</g>
					</g>
					<g id="Layer">
						<path id="Layer" class="shp1" d="M21.62 14.58L22.57 15.54L21.93 16.18L22.14 16.39L22.98 15.54L21.66 14.22L21.46 14.43L21.62 14.58Z" />
						<path id="Layer" class="shp1" d="M20.75 15.54L21.18 15.11L21.53 15.45L21.2 15.78L21.41 15.99L21.41 15.98L21.41 15.98L21.41 15.98L21.94 15.45L21.33 14.85L21.18 14.7L20.34 15.54L21.66 16.86L21.87 16.65L21.82 16.61L21.78 16.56L21.75 16.54L21.71 16.49L21.66 16.45L21.66 16.45L20.75 15.54Z" />
						<path id="Layer" fill-rule="evenodd" class="shp2" d="M23.39 14.81C23.76 15.8 23.27 16.9 22.29 17.26C21.32 17.61 20.23 17.1 19.87 16.1C19.5 15.1 19.99 14.01 20.97 13.65C21.94 13.29 23.03 13.81 23.39 14.81ZM21.66 16.45L21.66 16.45L20.75 15.54L21.18 15.11L21.53 15.45L21.2 15.78L21.41 15.98L21.94 15.45L21.33 14.85L21.18 14.7L20.34 15.54L21.66 16.86L21.87 16.65L21.66 16.45ZM21.66 14.22L21.46 14.43L21.62 14.58L22.57 15.54L21.93 16.18L22.14 16.39L22.98 15.54L21.66 14.22Z" />
					</g>
					<g id="Layer">
						<path id="Layer" class="shp0" d="M23.1 5L23.27 5L23.27 5.14L23.1 5.14L23.1 5Z" />
						<path id="Layer" class="shp0" d="M22.95 4.18L22.95 4.05L23 4.05C23.19 4.05 23.28 4.17 23.28 4.41C23.28 4.57 23.25 4.67 23.19 4.72C23.13 4.77 23.01 4.8 22.83 4.8C22.66 4.8 22.54 4.77 22.48 4.72C22.42 4.67 22.39 4.57 22.39 4.43C22.39 4.29 22.41 4.19 22.45 4.14C22.49 4.09 22.57 4.06 22.68 4.06L22.68 4.19L22.66 4.19C22.59 4.19 22.55 4.21 22.52 4.24C22.5 4.28 22.49 4.34 22.49 4.44C22.49 4.54 22.51 4.6 22.55 4.63C22.6 4.65 22.69 4.67 22.84 4.67C22.98 4.67 23.07 4.65 23.11 4.62C23.15 4.59 23.17 4.52 23.17 4.4C23.17 4.3 23.16 4.24 23.13 4.22C23.11 4.19 23.05 4.18 22.95 4.18Z" />
						<path id="Layer" fill-rule="evenodd" class="shp0" d="M22.39 3.51C22.39 3.36 22.41 3.25 22.47 3.2C22.53 3.16 22.65 3.13 22.83 3.13C23.02 3.13 23.14 3.16 23.2 3.2C23.25 3.25 23.28 3.35 23.28 3.51C23.28 3.67 23.25 3.78 23.2 3.82C23.14 3.87 23.02 3.9 22.83 3.9C22.64 3.9 22.53 3.87 22.47 3.82C22.41 3.78 22.39 3.67 22.39 3.51ZM22.49 3.51C22.49 3.63 22.51 3.7 22.55 3.72C22.58 3.75 22.68 3.76 22.83 3.76C22.99 3.76 23.08 3.75 23.12 3.72C23.15 3.7 23.17 3.63 23.17 3.51C23.17 3.4 23.15 3.33 23.12 3.3C23.08 3.28 22.99 3.26 22.83 3.26C22.68 3.26 22.58 3.28 22.55 3.3C22.51 3.33 22.49 3.4 22.49 3.51Z" />
						<path id="Layer" class="shp0" d="M22.4 2.93L22.4 2.8L22.53 2.81L22.53 2.8C22.43 2.76 22.39 2.66 22.39 2.52C22.39 2.38 22.43 2.29 22.53 2.26L22.53 2.25C22.43 2.2 22.39 2.1 22.39 1.95C22.39 1.75 22.49 1.65 22.7 1.65L23.27 1.65L23.27 1.77L22.69 1.77C22.61 1.77 22.56 1.79 22.53 1.81C22.51 1.84 22.49 1.89 22.49 1.97C22.49 2.07 22.51 2.14 22.55 2.17C22.59 2.21 22.66 2.23 22.77 2.23L23.27 2.23L23.27 2.35L22.7 2.35L22.66 2.35C22.55 2.35 22.49 2.42 22.49 2.55C22.49 2.72 22.59 2.8 22.77 2.8L23.27 2.8L23.27 2.93L22.4 2.93L22.4 2.93Z" />
					</g>
				</g>
			</g>
		</g>
	</g>
</svg>