<?xml version="1.0" encoding="UTF-8" standalone="no"?>
<!-- Created with Inkscape (http://www.inkscape.org/) -->

<svg
   xmlns:dc="http://purl.org/dc/elements/1.1/"
   xmlns:cc="http://creativecommons.org/ns#"
   xmlns:rdf="http://www.w3.org/1999/02/22-rdf-syntax-ns#"
   xmlns:svg="http://www.w3.org/2000/svg"
   xmlns="http://www.w3.org/2000/svg"
   version="1.1"
   width="736.36383"
   height="874.28125"
   id="svg2">
  <defs
     id="defs4" />
  <metadata
     id="metadata7">
    <rdf:RDF>
      <cc:Work
         rdf:about="">
        <dc:format>image/svg+xml</dc:format>
        <dc:type
           rdf:resource="http://purl.org/dc/dcmitype/StillImage" />
        <dc:title></dc:title>
      </cc:Work>
    </rdf:RDF>
  </metadata>
  <g
     transform="translate(-7.2348652,-82.507267)"
     id="layer1">
    <g
       id="g3850">
      <g
         transform="translate(-783.93219,0)"
         id="g3073">
        <path
           d="m 791.31219,82.507267 -0.14513,525.718753 0.005,0.41374 c 1.7591,145.56183 128.31281,348.15756 368.23394,348.14876 230.631,-0.008 366.9816,-187.99488 367.9446,-348.5625 l 0.1803,-525.718753 z"
           id="path3405"
           style="fill:#000000;stroke:none" />
        <g
           id="g3918">
          <path
             d="m 1163.9375,91.0625 0,857.15625 C 1387.3111,945.76599 1519.2185,762.87316 1520.1562,606.5 l 0.1876,-515.4375 -356.4063,0 z M 1306.5,107.75 l 68.5312,77.4375 58.0313,0 0,80.375 -16.8437,13.84375 0,156.625 1.8124,0 0,150.65625 3.75,0 0,100.15625 8.0938,0 0,123.5625 -246.9062,0 0,-123.5625 8.0937,0 0,-100.15625 3.7187,0 0,-150.65625 1.8126,0 0,-156.1875 -15.1876,-15.03125 0,-79.625 54.9688,0 70.125,-77.4375 z"
             id="rect3792"
             style="fill:#da0000;fill-opacity:1;stroke:#000200;stroke-width:1.90999997;stroke-linecap:round;stroke-linejoin:bevel;stroke-miterlimit:10;stroke-opacity:1;stroke-dasharray:none" />
          <path
             d="m 1241.0116,223.61334 0.032,-32.59714 65.4683,-74.15351 64.5126,73.41498 -0.1445,33.3121 -34.3214,0.41736 -0.045,-36.98845 -64.5871,-0.41736 0.1446,37.04409 z"
             id="path3825"
             style="fill:#002b8e;fill-opacity:1;stroke:none" />
          <path
             d="m 1187.9062,191.84375 0,69.5 239.3126,0 0,-69.5 -51.3438,0 0,38.15625 -44.875,0 0,-38.15625 -52.875,0 0,38.15625 -41.9688,0 0,-38.15625 -48.25,0 z m 6,74.6875 10.0626,10.90625 206.0937,-0.28125 10.0625,-10.09375 -226.2188,-0.53125 z m 9.875,17.71875 0,46.65625 28.75,0 0,-46.65625 -28.75,0 z m 36.125,0 0,46.65625 63.3126,0 0,-46.65625 -63.3126,0 z m 70.2813,0 0,46.65625 62.5937,0 0,-46.65625 -62.5937,0 z m 69.2813,0 0,46.65625 31.4374,0 0,-46.65625 -31.4374,0 z m -175.9376,54.03125 0,43.90625 64.2813,0 0,-43.90625 -64.2813,0 z m 71.125,0 0,43.90625 12.5,0 0,-7.25 c 0,-10.56676 8.527,-19.0625 19.0938,-19.0625 10.5667,0 19.0625,8.49574 19.0625,19.0625 l 0,7.25 14.6875,0 0,-43.90625 -65.3438,0 z m 71.5626,0 0,43.90625 64.0312,0 0,-43.90625 -64.0312,0 z m -142.6876,50.09375 0,46.34375 28.375,0 0,-46.34375 -28.375,0 z m 35.0313,0 0,46.34375 48.5937,0 0,-46.34375 -48.5937,0 z m 86.75,0 0,46.34375 49.5,0 0,-46.34375 -49.5,0 z m 55.4687,0 0,46.34375 29.4688,0 0,-46.34375 -29.4688,0 z m -179.4374,51.875 0,42.15625 65.625,0 0,-42.15625 -65.625,0 z m 72.625,0 0,42.15625 66.75,0 0,-42.15625 -66.75,0 z m 73.0937,0 0,42.15625 65.375,0 0,-42.15625 -65.375,0 z m -145.2813,49.21875 0,46.34375 28.875,0 0,-46.34375 -28.875,0 z m 35.625,0 0,46.34375 66.2188,0 0,-46.34375 -66.2188,0 z m 72.3126,0 0,46.34375 66.25,0 0,-46.34375 -66.25,0 z m 72.3124,0 0,46.34375 29.9688,0 0,-46.34375 -29.9688,0 z m -180.6874,52.3125 0,44.8125 65.625,0 0,-44.8125 -65.625,0 z m 72.625,0 0,44.8125 66.75,0 0,-44.8125 -66.75,0 z m 73.0937,0 0,44.8125 65.375,0 0,-44.8125 -65.375,0 z m -148.7813,51 0,44.125 29.8126,0 0,-44.125 -29.8126,0 z m 36.8126,0 0,44.125 68.4374,0 0,-44.125 -68.4374,0 z m 74.7187,0 0,44.125 68.4375,0 0,-44.125 -68.4375,0 z m 74.75,0 0,44.125 30.9375,0 0,-44.125 -30.9375,0 z m -186.2813,50.53125 0,44.8125 67.5313,0 0,-44.8125 -67.5313,0 z m 74.75,0 0,44.8125 68.6563,0 0,-44.8125 -68.6563,0 z m 75.1876,0 0,44.8125 67.2812,0 0,-44.8125 -67.2812,0 z m -157.8126,51 0,50.71875 31.9688,0 0,-50.71875 -31.9688,0 z m 39.4688,0 0,50.71875 73.4062,0 0,-50.71875 -73.4062,0 z m 80.1562,0 0,50.71875 73.4063,0 0,-50.71875 -73.4063,0 z m 80.1563,0 0,50.71875 33.1875,0 0,-50.71875 -33.1875,0 z m -198.9063,60.1875 0,47.84375 71.875,0 0,-47.84375 -71.875,0 z m 79.5626,0 0,47.84375 73.0937,0 0,-47.84375 -73.0937,0 z m 80.0312,0 0,47.84375 71.625,0 0,-47.84375 -71.625,0 z"
             id="rect3827"
             style="fill:#f9f9f9;fill-opacity:1;fill-rule:evenodd;stroke:none" />
        </g>
        <path
           d="m 798.5,91.0625 -0.125,515.4375 0,0.40625 c 1.71238,141.69604 126.02858,338.51498 358,341.3125 l 0,-38.96875 c -11.0581,-9.16849 -24.4651,-14.74508 -24.0625,-41.40625 -20.2942,18.07134 -52.0217,30.21544 -83.3125,19.90625 -6.7234,-0.99816 -6.2505,-4.24047 -2.4375,-8.53125 8.5784,-7.73207 12.6581,-15.24748 32.9063,-23.59375 18.9734,-5.89965 43.2792,-34.13404 39.4374,-42.25 -13.2115,14.04425 -24.7768,29.17181 -45.5312,38.1875 -28.001,14.08098 -52.6725,8.62547 -67.875,-10.15625 -18.48881,-28.59516 12.4366,-52.03162 29.6562,-62.59375 4.8734,-3.68536 8.5785,-1.25171 6.9376,4.46875 -0.8185,9.75498 -6.8415,19.52627 9.75,29.28125 36.2524,7.69681 65.1079,-37.41547 71.9374,-71.53125 -10.1142,-5.57064 -9.7697,-24.64122 2.1563,-28.0625 3.0775,-8.90616 2.1592,-14.54797 0.75,-21.53125 -4.4818,1.44038 -8.6726,1.92858 -11.8437,-1.21875 11.9177,-15.3099 5.5543,-30.6276 1.625,-45.9375 -3.6583,0.82028 -7.3107,1.28749 -10.9688,-2.4375 11.9837,-16.92386 4.0787,-31.2547 2.0312,-46.34375 -2.1263,0.19765 -4.7124,-0.25257 -8.1562,-2.03125 0.8724,9.15826 -10.033,22.83855 -7.3438,37 1.3705,7.21661 0.8707,13.30946 -2.8124,15.84375 -8.7036,3.02938 -12.9686,-0.58359 -17.875,-3.25 -6.6802,22.00158 -15.6866,40.09672 -23.5626,58.9375 -5.7723,15.54359 2.9014,13.73895 13.4063,9.75 20.0972,-14.08074 38.6837,9.95348 31.2813,26 5.762,26.28953 -7.1968,27.62039 -18.6876,30.90625 2.0363,-6.70751 0.385,-12.48368 -2.8437,-17.875 -3.4593,0.30787 -6.8692,0.92369 -10.9687,-3.25 -3.9667,-5.52321 -30.7077,-8.11953 -39.4376,6.90625 -4.6036,6.33045 -10.0715,10.32762 -16.6562,11.375 -2.1481,4.07935 -6.62437,6.40382 -11.375,8.53125 -2.12236,6.75113 -5.88071,12.30488 -13,15.4375 -0.65433,5.57237 0.93508,10.28988 4.3125,16.5 -12.9933,4.73631 -30.39889,-6.42406 -25.53125,-21.71875 -9.04343,-10.49785 -6.57541,-33.79181 18.75,-32.5625 6.56807,-2.70972 9.84753,-5.41528 11.8125,-8.125 2.44353,-2.31168 0.52627,-5.90287 -4.3125,-1.5625 -10.9968,7.60532 -17.37952,5.02882 -25.375,6.03125 -1.23888,8.87658 -9.36649,13.3834 -19.5,11.78125 -4.14303,4.00643 -8.15104,8.11661 -5.1875,17.9375 -21.70315,-2.69902 -21.54577,-24.98343 -11.0625,-34.1875 3.40618,-26.46771 23.82556,-18.15058 34.125,-19.9375 6.24998,-4.2673 6.73349,-6.84897 -2.84375,-6.5 -5.96137,2.23377 -11.91363,3.79399 -17.875,0.8125 -5.71316,1.28659 -9.24065,7.19573 -13.65625,12.375 -13.44785,-10.91782 -6.00766,-32.24052 5.53125,-35.125 8.41164,-12.18319 19.31898,-12.22299 31.6875,-5.28125 11.19474,10.91616 20.30727,5.85543 30.90625,7.3125 5.04491,0.0175 20.77535,10.68457 25.99995,-10.5625 L 1027.4375,629.25 c -9.0041,-1.60005 -14.6931,-6.9826 -19.0937,-13.84375 21.0217,-8.49988 22.7799,-27.89217 27.125,-47.9375 l -4.375,-3.65625 c 14.1476,-14.79956 24.0822,-34.43334 24.4062,-65.03125 l -4.0625,-2.03125 c 4.9143,-14.31716 6.9702,-28.92877 5.2813,-43.90625 l -2.8438,1.625 c -5.6317,32.45072 -7.4914,66.46416 -20.3438,95.90625 -8.8906,20.53938 -30.9998,32.27894 -43.87495,19.53125 25.71995,-32.35988 16.34395,-79.16506 20.71875,-120.3125 l -1.625,-5.28125 -2.0312,4.875 c -6.1173,62.83088 -29.37227,166.43695 -48.37505,192.65625 -23.3729,29.94138 -59.5491,29.90592 -73.71875,3.34375 -2.59995,-2.53171 -2.10396,-5.56008 1.71875,-6.21875 16.46506,-1.44108 22.97681,-15.06748 27.6875,-30.875 9.66721,-51.43996 20.27223,-103.04793 23.59375,-153.21875 -12.30226,39.33001 -17.8758,89.28754 -55.6875,120.3125 -26.56289,18.32045 -44.08875,9.1176 -52.4375,-11.375 24.68676,-9.92126 30.01211,-33.66678 38.84375,-66.34375 9.78297,-36.19688 18.02747,-73.57344 21.71875,-98.28125 l -1.21875,-5.28125 c -11.88301,29.93032 -18.08059,64.5948 -36.59375,89 -10.72294,13.22066 -36.59327,29.14897 -49.15625,6.09375 18.21802,-15.43472 22.54804,-39.19314 28.84375,-61.78125 12.39523,-69.56482 20.70919,-140.02656 43.5,-207.28125 10.20786,-36.43238 50.84523,-68.4903 97.9375,-53.25 44.5393,17.32056 57.957,84.47875 2.21875,110.4375 -2.11073,7.9528 2.71227,13.70103 11.4375,19.21875 -2.89169,3.15472 -6.0896,7.62635 -9.59375,7.71875 14.3474,31.8867 50.4075,38.74957 88.625,43.09375 1.2238,-5.85358 2.2674,-11.7972 8.9375,-14.625 -14.9188,-2.36783 -16.5867,-15.11556 -17.4688,-28.46875 9.2132,1.64103 18.4121,6.80031 27.625,4.875 27.7317,-7.36282 22.8278,-56.23783 19.9376,-79.65625 -7.2728,-22.87536 -22.4083,-32.91981 -41.4688,-36.5625 -6.7442,-0.83212 -8.108,-3.78266 -3.6562,-8.96875 19.8638,-11.78791 31.8846,4.71183 45.9374,13.84375 0.5413,-18.40578 -10.7268,-22.3105 -21.7187,-20.375 -8.2141,-15.4881 -20.2916,-11.67575 -31.5313,0.0312 -2.25,0.13165 -3.2158,5.06653 -7.7187,-3.25 -6.9181,-25.88782 12.8489,-55.98066 48.75,-45.5 4.3847,0.69281 5.984,2.56223 9.7813,-1.65625 5.9719,-5.53401 13.0558,-8.81691 23.9687,-4.46875 9.3435,4.39569 20.9518,8.23359 28.9375,12.96875 l 0,-44.28125 -357.875,0 z"
           id="rect3790"
           style="fill:#002b8e;fill-opacity:1;stroke:#000200;stroke-width:1.90999997;stroke-linecap:round;stroke-linejoin:bevel;stroke-miterlimit:10;stroke-opacity:1;stroke-dasharray:none" />
        <path
           d="m 1119.6562,127.3125 c -3.0283,0.0929 -5.8622,1.21581 -8.5312,3.25 -4.4726,3.64657 -3.5123,5.40471 -1.9688,6.96875 1.7821,2.24687 8.1233,5.711 13.9376,6.46875 14.4963,3.59507 21.8985,10.0107 32.625,15.28125 l 0.062,-17.96875 c -4.8987,-0.33429 -17.2746,-8.49183 -28.7187,-12.34375 -2.5901,-1.19461 -5.0507,-1.72854 -7.4063,-1.65625 z m -41.25,5.0625 c -6.7813,0.18563 -12.6151,2.32296 -16.7187,5.40625 -6.1374,5.90243 -15.9557,18.8408 -10.3125,33.5 15.5159,-14.93695 27.0154,-11.71221 35.9062,1.40625 18.2617,-5.04254 28.1389,19.91222 25.5938,34.5 -1.1492,3.29861 -2.5695,2.98211 -4.0938,1.40625 -8.1812,-9.56653 -26.1983,-26.97 -38.3124,-24.71875 -4.4129,1.31955 -5.1675,6.57788 0.6874,6.625 17.2607,1.46387 33.6724,19.67119 39.875,36.90625 2.1642,23.4164 6.0851,53.15422 -8.0624,76.5 -11.8289,15.9154 -26.1749,10.82196 -38.7188,7.90625 0.6015,11.95361 9.149,17.83573 21.9062,15.84375 0.5315,6.07756 -12.1364,6.08616 -14,20.78125 -2.5172,7.80206 -6.1375,13.67981 -10.75,17.8125 18.3762,6.54246 42.8364,-10.57504 41.7188,-33.09375 -0.2208,-3.69718 1.2432,-5.1891 3.6562,-5.5 2.4732,1.16997 1.7162,4.35626 1.2813,7.34375 -4.098,23.129 -1.3102,24.90147 12.5937,42.28125 2.5644,-14.96789 16.2393,-10.2688 13.8438,-45.25 -0.7152,-3.17858 -0.7184,-5.56699 1.5625,-5.375 2.1263,-0.0445 3.229,2.26771 3.0937,7.5 0.324,8.05986 -1.8911,13.51564 -0.125,20.46875 2.2527,8.86856 8.0164,17.40066 16.8126,23.625 L 1156,164.78125 c -2.8612,-2.87862 -8.1388,-5.0812 -13.5938,-7.21875 -5.1362,15.57051 -33.3065,11.31336 -27.9687,-9.34375 -5.666,-5.06619 -12.4209,-8.02837 -16.2813,-10.875 -1.5193,-1.28804 -2.843,-1.62768 -4.2187,-2.125 -4.9457,-1.92697 -9.7381,-2.79414 -14.1563,-2.84375 -0.4601,-0.005 -0.9229,-0.0124 -1.375,0 z m 39.7188,17.1875 c -3.4311,14.70193 16.1968,19.21988 20.75,6.40625 l -2.8438,-1.21875 c -4.2618,9.85475 -16.8237,5.11989 -14.875,-4.125 l -3.0312,-1.0625 z m 5.5938,1.34375 c -1.5654,3.33007 0.588,8.17879 4.625,6.59375 l -0.6563,-5.21875 -3.9687,-1.375 z m -176.18755,18.75 c -45.09693,0.33248 -63.68448,38.00697 -74.375,75.8125 -33.67355,127.90964 -28.47191,222.60622 -63.28125,244.84375 19.27027,12.05401 33.57453,-4.82609 43,-19.53125 11.88683,-19.80647 30.56002,-83.7862 46.0625,-125.25 -5.79008,5.42465 -13.32161,9.58502 -24.625,11 -8.41597,37.52226 -28.82628,107.59935 -34.875,113.6875 -3.28072,3.86883 -7.13797,5.81703 -3.78125,-2.25 16.34292,-31.08538 25.24843,-79.11582 33.71875,-116 -3.6792,-21.05645 -0.16796,-41.66614 18.5625,-59.09375 0.14964,-19.54978 7.00084,-32.95053 19.71875,-40.9375 -3.68961,-9.91142 -3.77354,-20.60764 -3.03125,-31.46875 l 6.8125,1.125 c -8.64727,44.69038 41.37332,65.08511 75.0625,41.71875 35.1459,-26.27242 22.0671,-81.64376 -24.09375,-92.5 -5.25358,-0.80608 -10.2098,-1.19064 -14.875,-1.15625 z M 965.8125,193.75 c 2.51001,-0.11135 5.59412,0.57397 9.40625,2.40625 8.88655,7.23702 6.91181,20.30076 -5.28125,21.34375 -3.18875,0.9691 -4.03266,2.85515 -0.46875,3.46875 7.23643,1.29507 12.19601,7.34763 8.25,16.875 -5.98566,11.71696 -20.18294,8.92121 -22.5,-1.0625 -1.24155,-1.72343 -2.44965,-2.70328 -3.375,0 -3.78016,9.31862 -12.60495,13.97153 -22.53125,7.0625 -7.64075,-10.33991 -2.23163,-19.376 8.40625,-21.3125 1.79751,0.001 4.77275,-1.46724 -0.375,-2.0625 -6.30719,0.86482 -16.88627,-9.17832 -8.03125,-21.4375 9.93772,-9.0971 22.09824,-3.31826 23.03125,7.78125 1.25769,2.14449 1.72018,0.81842 2.375,0.25 1.20803,-5.44727 3.56372,-12.97845 11.09375,-13.3125 z m 0.25,4.78125 c -4.60419,0.14228 -7.30875,5.19244 -7.53125,10.5 1.17819,4.34839 -10.30165,7.31293 -10.46875,-0.15625 0.29681,-7.46772 -7.64051,-13.29712 -14.65625,-6.71875 -6.42537,8.00141 -0.50387,14.75818 8.5625,15.21875 7.41792,0.39915 7.38576,7.20353 0.375,7.9375 -6.53791,0.71598 -15.81229,4.16771 -10.375,13.875 4.237,5.74235 12.45636,5.21759 17.4375,-7.59375 1.16519,-2.66839 5.10449,-5.008 7.59375,-0.28125 0.64491,5.26269 7.29756,14.84931 15.03125,6.875 5.21933,-5.68079 0.55123,-14.31934 -7.6875,-14.28125 -5.23507,1.21301 -8.2609,-7.49911 -0.0937,-9.5 6.34519,0.37298 15.9008,-5.23781 8.0625,-13.5 -2.34882,-1.73101 -4.44836,-2.43067 -6.25,-2.375 z m -56.4375,58.125 c -9.60487,6.83169 -17.76689,22.42297 -17.09375,36.5 12.66635,-0.16876 29.40435,-12.78933 31.65625,-21.3125 -6.12965,-4.58449 -10.67395,-9.7626 -14.5625,-15.1875 z m 18.375,17 c -6.86682,9.28704 -16.21757,26.4516 -8.4375,43.03125 12.28872,-1.99307 30.31252,-20.27525 31.53125,-35.96875 -8.88757,-1.31734 -16.45515,-3.77731 -23.09375,-7.0625 z m 40.21875,6.5625 c -4.57203,0.3163 -9.0712,0.67458 -14.75,0.4375 2.10688,13.11183 10.49834,28.29294 23.96875,16.25 -4.31154,-4.73057 -8.27919,-9.70894 -9.21875,-16.6875 z m -56.59375,12.84375 -21.78125,4.53125 c -11.10166,15.58456 -19.84248,31.96159 -16.09375,52.5 14.76055,-2.34768 29.61195,-13.88073 42.25,-28.625 -1.71204,-8.00316 -2.83347,-15.81409 -3.03125,-23.3125 -8.71685,10.70541 -17.4394,22.03485 -26.15625,33.75 -2.38418,1.41923 -4.82448,2.89265 -2.28125,-2.09375 8.94095,-12.28469 15.44348,-25.36841 27.09375,-36.75 z m 40.1875,1.46875 C 940.67327,307.85069 931.24777,321.89096 933.46875,340.75 946.82426,339.15786 956.24376,331.47726 963,319.65625 l -2.09375,-10.5625 -9.09375,-14.5625 z m 16.40625,11.09375 c -1.42592,-0.0446 -2.64468,0.67246 -3.625,2.1875 3.69469,25.30795 48.01595,48.50894 81.06245,53.90625 12.7218,1.93939 17.6012,-3.92524 17.9688,-8.78125 -35.367,-2.94539 -76.10257,-14.25928 -92.625,-46.40625 -1.01597,-0.5882 -1.9257,-0.87951 -2.78125,-0.90625 z m -37.625,13.5625 c -8.99554,0.21497 -17.66485,11.39843 -26.15625,28.25 -2.82868,5.92248 -11.56472,28.01953 -7.40625,45.65625 19.86254,0.68585 50.78458,-42.20619 47.5625,-48.3125 l -13.25,-0.1875 c -7.57284,10.35213 -14.95412,20.51858 -21.03125,29.375 -5.14664,3.88333 -2.84805,0.29886 -1.71875,-2.09375 1.89415,-7.51051 11.65846,-19.30227 18.59375,-29.5625 0.87655,-7.35896 1.13191,-13.90232 3.40625,-23.125 z m 36.21875,5.09375 c -7.62061,12.45162 -12.20049,27.93967 -9.28125,41.5625 10.3409,-0.0194 22.13991,-14.756 26.5625,-23 -6.44802,-5.50731 -12.47431,-11.4141 -17.28125,-18.5625 z M 953.125,342.6875 c -16.89959,27.20648 -36.13305,59.95769 -15.53125,90.40625 12.89378,-6.33117 27.54646,-24.53073 36.375,-43.40625 3.36226,-7.13282 0.99786,-16.87674 2.09375,-25.375 l -15.34375,8.5 c -5.68715,6.8016 -10.48709,21.50524 -15.71875,32.40625 -1.70546,2.21078 -2.65426,1.90497 -2.84375,-0.9375 2.10678,-11.30664 8.50743,-22.59961 12.875,-33.90625 -4.48959,-8.87145 -2.7355,-18.33252 -1.90625,-27.6875 z m 36.25,4.15625 c -8.08593,11.60617 -9.88865,24.89137 -6.75,39.46875 10.9171,-7.18135 21.8926,-14.94705 27.9688,-27.9375 -7.1627,-3.16353 -14.23576,-6.99361 -21.2188,-11.53125 z m 112.4688,11.8125 c -3.9949,4.86608 -8.4813,9.28278 -14.1563,12.46875 -1.7534,18.56277 -3.9996,40.56921 7.4063,51.90625 10.3891,-10.95149 21.1726,-21.56469 21.7187,-40.71875 -7.1706,-6.94326 -11.7266,-15.02936 -14.9687,-23.65625 z M 1014.5,360.5625 c -4.3749,8.03691 -1.4391,30.4581 4.625,33.96875 9.4382,-7.42762 15.7701,-15.94193 19.1875,-26.78125 L 1014.5,360.5625 z m 122.8438,5.125 -13.0313,21.84375 c -0.013,6.64487 2.0584,28.26865 11.0937,35.9375 9.6667,-6.83567 15.0341,-19.40699 20.5938,-31.71875 l -0.3438,-7.5625 c -7.4517,-4.81746 -14.9783,-9.56484 -18.3124,-18.5 z m -92.0626,2.6875 c -3.0791,12.56771 2.818,25.83163 9.5,29.3125 -0.5458,-9.45847 2.241,-19.65048 5.9063,-26.34375 l -15.4063,-2.96875 z m 37.7813,3.8125 -16.4687,0.84375 c -6.4156,4.39754 -6.0497,19.87153 -5.5313,32.25 0.8013,19.1368 -6.086,17.67988 -6.0625,22.15625 10.7045,1.42662 28.9133,-11.90624 25.0625,-33.125 -1.5053,-8.29419 0.2794,-18.46742 3,-22.125 z m -78,3.09375 c -7.83039,6.59706 -12.51002,16.99445 -24.84375,18.1875 -15.31171,18.39771 -14.44733,47.84543 -7.75,68.21875 19.14691,-6.70325 41.40585,-38.90184 42.81245,-61.5625 -2.7386,-5.59217 -5.4568,-16.41031 -9.0937,-17.0625 -5.3686,17.28455 -11.31102,34.36319 -22.15625,49.65625 -4.81525,3.69529 -3.55392,0.79059 -2.46875,-1.90625 9.56473,-18.79621 16.95312,-37.23801 23.5,-55.53125 z m -79.15625,7.75 c -3.95657,5.12822 -19.11263,17.45362 -29.5625,16.21875 -5.32002,31.89785 -18.71284,97.42865 -33.78125,135.9375 -6.21716,15.88858 -14.89973,26.76753 -25.5625,29.84375 8.91813,21.66592 34.97112,16.77718 55.71875,-8.53125 24.25242,-34.00096 30.47067,-76.26451 41.46875,-118.03125 -6.12981,-6.38862 -8.61521,-18.24385 -10.5625,-30.90625 -16.12367,50.32923 -22.70808,107.91503 -52.03125,148.1875 -6.947,5.99837 -6.50175,2.66373 -2.875,-2.53125 25.59134,-35.62569 36.30033,-110.50541 57.1875,-170.1875 z m 110.53125,4.40625 c -5.4834,5.97969 -10.7069,12.65734 -17.1563,16.09375 -5.7681,22.74885 -5.1267,45.93682 10.6876,64.90625 14.7935,-10.27759 18.2327,-27.75859 19.2812,-36.375 -2.9398,-2.93387 -2.5149,-5.3945 0.3438,-7.5 3.9271,-6.00276 4.1557,-12.92181 4.9062,-19.71875 L 1041.4062,389.25 c -1.8786,17.06843 -5.9761,39.79371 -7.5,52.78125 -0.7951,5.06762 -3.5752,3.95096 -3.2187,0.375 l 5.75,-54.96875 z m 83.3437,17.8125 c -3.392,9.38015 -14.3297,21.15308 -23.9687,25.03125 0.2417,15.16608 5.8428,37.18676 19.1563,46.78125 4.9245,-9.65396 9.8567,-17.3697 14.7812,-28.9375 l 0.125,-17.5625 c -4.2866,-6.82104 -7.3551,-15.78248 -10.0938,-25.3125 z m 36,7.90625 c -3.3037,4.61607 -10.6884,17.16832 -19.9062,22.8125 -0.66,20.92818 6.53,35.97406 19.9062,46.375 l 0,-69.1875 z m -73,4.96875 c -3.7602,9.00323 -13.6851,13.64052 -22.2187,14.78125 1.7612,4.86038 5.4041,42.31475 -4.4063,58.78125 16.3482,0.92723 30.3251,-21.91591 31.75,-31.59375 2.6712,-12.11565 4.6196,-34.16627 -5.125,-41.96875 z m -120.62495,4.03125 c -3.92513,6.56648 -7.84585,13.15912 -15.90625,16.96875 -6.4791,50.63161 -11.73767,101.37556 -22.78125,151.5 -3.99835,25.57937 -10.43112,48.42718 -32.5625,53.78125 19.00393,28.48524 56.76887,12.67988 69.9375,-20.375 24.29066,-60.25824 31.72476,-121.31692 41.84375,-182.25 -7.42031,11.07292 -14.62994,22.30168 -28.59375,27.53125 -5.26195,32.34963 -17.80144,136.15677 -42.40625,165.5625 -7.98559,6.92931 -10.51519,3.41152 -3.4375,-2.65625 21.83822,-32.38381 34.68086,-126.24458 40,-164.21875 -5.90792,-14.84516 -6.4685,-30.30051 -6.09375,-45.84375 z m 86.18755,33.25 c -4.3291,6.83808 -8.0084,14.05937 -15.8126,18.8125 -0.7917,15.23248 -3.28,63.81882 -16.9062,76.90625 0.5855,-1.92489 0.5761,-2.29769 2.4375,-7.625 9.0053,-21.51132 7.1855,-46.6438 10.375,-70.09375 -6.9954,-3.8005 -9.3737,-9.1342 -11.6875,-13.59375 -4.4348,36.74104 3.0554,77.1079 -19.9375,109.3125 10.3167,4.62151 26.8762,-7.73069 34.9063,-25.09375 10.5128,-28.92198 13.2651,-58.80889 16.625,-88.625 z m 47.625,3.25 c -2.9696,12.65982 -7.7091,22.15797 -14.9376,29.28125 -3.6929,18.38021 5.7543,27.40112 6.2813,42.78125 9.2181,-3.00917 27.3714,-26.74054 29.7187,-45.53125 -11.1173,-6.10966 -16.2074,-15.66071 -21.0624,-26.53125 z m 35.8124,3.9375 c -3.0355,7.01855 -7.6523,14.01523 -11.4062,19.3125 -1.0399,12.84103 12.5147,34.51759 19.5938,47.96875 7.7098,-7.79508 11.251,-20.24409 16.2187,-30.78125 l -0.4063,-9 c -11.136,-6.86376 -19.2543,-15.94992 -24,-27.5 z m -58.4374,30.875 c -4.3813,1.91299 -8.0824,4.30188 -13.5,5.4375 0.6057,16.28802 -2.93,46.65247 -21.875,63.15625 19.4389,4.02402 41.3326,-8.08968 45,-29.375 -4.2131,-9.41999 -10.0563,-28.69975 -9.625,-39.21875 z m 45.0937,9.40625 c -3.4874,11.11769 -9.1012,17.95494 -14.2187,25.8125 -1.6562,15.22001 5.4431,26.90352 10.2812,36.375 8.8697,-8.26404 16.5275,-23.28377 19.5312,-31.25 -5.2971,-10.24811 -11.0769,-20.16915 -15.5937,-30.9375 z m 37.125,17.53125 c -3.8398,6.01396 -12.0115,9.4746 -11.1875,19.375 0.9566,6.32232 1.5289,13.00469 3,18.8125 2.1074,4.36643 5.7843,10.80074 8.625,15.875 l -0.4375,-54.0625 z m -58.9063,11.6875 c -12.0582,3.91314 -18.1798,21.45294 -13,32.5 3.495,8.17515 8.7781,14.7705 15.1563,20.0625 2.8747,2.85381 5.6008,4.0116 8.5625,4.5625 -1.6677,-8.36494 -0.7686,-16.41225 -0.2188,-24.5 -2.8927,-6.99003 -10.2181,-19.15555 -10.5,-32.625 z m 40.5938,13.875 c -4.801,8.38372 -9.2918,16.99827 -15.4688,24.28125 0.7654,22.3241 8.723,36.40666 18.1876,48.59375 1.0626,1.06209 2.156,0.51576 3.2187,-0.125 5.4358,-5.55318 10.2563,-16.33408 12.625,-22.75 L 1155.7812,583 c -8.104,-8.2184 -18.1436,-20.4988 -18.5312,-37.03125 z m -64.2188,13.96875 c -8.2673,3.87163 -20.6446,7.47761 -31.2187,7.375 -4.4323,17.83024 -4.4992,39.13618 -24.4063,50.0625 4.7162,7.95796 25.2979,8.22425 35.6563,-5.09375 7.4998,-9.8485 12.2649,-22.1694 16.9375,-34.5625 1.5757,-6.01899 3.4096,-12.0864 3.0312,-17.78125 z m 4.4376,10.09375 c -0.2866,5.78089 -2.7685,11.56286 -4.3438,17.34375 -3.4199,14.64259 -11.7406,19.84408 -13.3125,32.28125 3.2826,9.77724 13.6637,23.14462 25.875,20.8125 1.4574,-2.2805 1.3352,-4.07996 0.7813,-5.75 -2.2673,-11.28234 0.1485,-19.33834 2.375,-27.53125 1.4733,-3.03497 2.9664,-6.05878 3.5937,-9.09375 0.2008,-3.0392 1.28,-5.47386 2.5937,-7.6875 -7.3028,-6.13993 -13.15,-12.78985 -17.5624,-20.375 z m 35.8124,2.125 c -0.6511,0.0431 -1.3093,0.89462 -1.5312,2.96875 -0.8584,26.3908 12.9704,43.85067 2.4375,63.4375 8.8136,1.13986 17.9745,-7.00056 21.5313,-15.46875 -7.4795,-15.66718 -19.0061,-27.63348 -20.9063,-48.0625 0.1358,-1.66267 -0.694,-2.93037 -1.5313,-2.875 z m 42.625,41.8125 c -3.6237,5.74126 -7.3996,10.38347 -11.3124,13.8125 -0.5104,16.46968 5.2123,44.18267 11.1874,51 l 0.125,-64.8125 z m -102.5937,5.8125 c -3.2699,4.74793 -14.6139,7.34925 -18.9687,7.9375 -3.9221,20.62238 -8.1687,42.58439 -11.75,61.84375 -3.3263,14.19696 -13.3869,19.22091 -27.0313,15.0625 -3.42674,-2.52992 -8.20019,-3.36046 -14.09375,-2.71875 -10.42585,0.77915 -17.35145,-2.7997 -23.59375,-7.25 -9.27665,-6.3941 -23.92651,-3.52971 -22.90625,7.53125 2.82044,11.66265 10.36406,14.47405 22.125,7.25 2.05714,-1.17744 3.13988,-1.68757 5.46875,0.46875 10.01224,7.37318 19.22105,5.756 28.5625,5.75 1.46802,-0.13346 2.35984,2.64222 0.0625,3.1875 -7.55088,-0.0856 -28.54293,7.87632 -30.25,9.375 -4.90733,2.8988 -8.7458,2.07366 -12.78125,1.53125 -8.76176,-1.65712 -19.40431,3.01414 -18.15625,13.8125 4.40296,10.22432 19.73879,18.28667 26.84375,-1.8125 4.554,-0.33495 8.97304,-0.2774 13.34375,-0.0625 6.05643,0.23118 9.83647,-2.45369 12.03125,-7.1875 6.22566,-0.64864 13.67754,1.2486 17.375,-4.625 2.63465,-1.7589 5.43525,-2.18977 4.62505,1.125 -1.6223,7.95993 -6.233,12.9348 -11.50005,17.25 -5.53078,5.10027 -11.33406,8.58567 -17.78125,8.1875 -14.79346,1.82704 -19.30238,13.75651 -13.9375,22.0625 6.44679,10.10588 23.95136,6.53655 24.5625,-6.40625 0.20874,-1.61 0.91778,-2.98546 3.5,-3.5 2.8196,-0.44967 5.64915,-2.64195 8.46875,-5.28125 2.34612,-2.14021 4.63215,-4.10439 8.06255,-4.4375 6.1,-1.5888 8.1368,-5.53131 9.9687,-8.71875 1.4926,-3.10572 3.8479,-5.10696 6.4375,-6.75 11.6498,-6.03476 30.1117,-10.63759 43.9375,0.75 2.4265,2.44452 3.2434,0.23181 3.9687,-1.40625 1.877,-8.16073 8.9816,-8.13514 15.1876,-9.96875 1.4629,-0.38743 3.4755,-0.23653 2.25,-3.3125 -1.1866,-5.80949 -6.6814,-21.35119 -21.4688,-12.75 -7.7314,4.05209 -16.8821,5.30293 -22.4062,1.46875 -5.5761,-5.14282 -2.6641,-15.13772 0.4687,-23.8125 7.6707,-17.37535 14.8436,-35.23534 21.8125,-53.3125 -5.2275,-1.6785 -12.9221,-16.91967 -12.4375,-21.28125 z m 84.5,13.03125 c -0.4241,-0.005 -0.9503,0.26044 -1.5937,0.9375 -4.1945,4.90168 -9.2829,7.90141 -15.5,8.46875 1.249,1.19097 11.8082,28.67254 2.7187,42.375 6.0663,3.14393 17.639,-10.29508 20.4687,-16.8125 -3.9351,-10.12959 -5.1753,-21.14604 -4.7812,-32.71875 0.023,-0.93377 -0.3796,-2.2398 -1.3125,-2.25 z m 7.9375,42.5 c -0.2697,0.0479 -0.5847,0.31759 -0.9688,0.9375 -2.9305,5.14325 -7.567,9.29822 -12.5937,13.21875 1.3182,7.12217 1.6689,14.57355 0,22.75 l 23.7187,0.1875 -0.062,-25.75 c -4.3874,-2.39102 -6.6721,-6.37694 -9,-10.3125 -0.3163,-0.58598 -0.6443,-1.11105 -1.0938,-1.03125 z m -217.8125,28.125 c -5.10192,4.93145 -8.76892,13.61991 -4.375,18.15625 l 9.34375,-8.46875 c -2.4864,-2.79629 -3.80006,-6.35081 -4.96875,-9.6875 z m 202.75,14.28125 c -11.7471,3.0567 -9.1772,17.57165 -0.3125,18.90625 l 25.5,0.125 -0.125,-18.96875 -25.0625,-0.0625 z m -46.1563,19.96875 c -4.2452,0.91943 -6.7338,3.01366 -8.6874,5.5 -1.3651,1.51598 -1.5823,3.32443 -0.063,4.3125 3.6342,1.84656 5.7989,4.60138 4.7813,12.21875 6.9888,-2.61998 10.1504,-12.51738 3.9687,-22.03125 z m 44.7813,3.5 c -8.8551,54.631 -51.4164,81.14313 -73.0625,76.71875 -13.0757,-2.76443 -22.9311,-8.77604 -19.875,-27.6875 1.1078,-4.99705 0.9499,-6.91271 -0.125,-6.625 -14.2744,8.6332 -35.0131,28.19964 -29.1562,46.75 8.0927,19.90691 28.7712,31.3138 60.2187,18.5 31.0899,-13.58913 57.55,-44.27801 62.4063,-68.46875 1.4411,-6.6567 -0.078,-6.5369 -2.8438,-0.5625 -19.2587,37.55566 -54.7009,65.09506 -86.8438,58.34375 -12.2994,-3.21916 -18.7918,-12.68262 -15.3437,-23.21875 1.064,-1.73941 2.6184,-0.95048 2.9375,-0.8125 -0.4731,1.97097 -0.5145,3.74926 -0.2812,5.40625 5.4635,15.08787 27.6933,18.33536 50.7812,6.625 26.9567,-16.04085 52.2213,-43.4799 57.8125,-84.6875 l -6.625,-0.28125 z m 9.8437,0.1875 -7.1562,47.71875 c -5.8151,28.12091 -13.5046,55.07227 -44.7812,67.5625 -11.9862,6.38048 -29.8259,12.1728 -34.75,26.125 29.0597,8.96963 68.7682,-4.31187 83.0624,-31.65625 1.4711,-10.30435 4.7752,-21.84934 7.2813,-32.84375 l -4.0937,-8.03125 c -6.5596,31.00738 -23.512,56.73566 -51.6563,61.4375 -4.4299,0.62935 -5.2365,-1.01478 -0.1563,-2.03125 30.9287,-13.81967 42.3658,-34.39196 50.8126,-64.21875 -3.2799,-20.1702 5.5841,-48.2166 9.3124,-64.0625 l -7.875,0 z m 11.4688,0.125 -7.1562,35.78125 c -3.5429,22.27399 1.4576,37.75195 12,45 l 0.3124,-80.78125 -5.1562,0 z m -224.59375,7.8125 c -3.78142,4.64432 -6.29743,17.54924 3.40625,20.71875 -0.30581,-5.60425 1.93419,-9.1743 4.4375,-12.53125 -3.64653,-2.07158 -6.19522,-4.83149 -7.84375,-8.1875 z m 37.3125,39.34375 c -1.37363,6.29804 7.54345,14.45214 12,12.8125 -1.02116,-3.65119 -1.72613,-7.36185 -1.25,-11.3125 -4.4317,0.076 -7.04449,-0.19539 -10.75,-1.5 z M 1146.0938,822.34375 1139,857.5 c -0.875,10.92786 -1.0674,21.70848 5.5,31.21875 l 11.1875,11.1875 0.1563,-71.15625 -9.75,-6.40625 z"
           id="path3927"
           style="fill:#ffcc01;fill-opacity:1;stroke:none" />
      </g>
    </g>
  </g>
</svg>
